# xmcd
#
# Track frame offsets:
#	150
#	25953
#	53081
#	76375
#	104331
#	134741
#	145024
#
# Disc length: 2571 seconds
#
# Revision: 0
# Processed by: cddbd v1.5.1PL2 Copyright (c) Steve Scherf et al.
# Submitted via: MusicManager 7.3.0.0 
#
DISCID=5c0a0907
DTITLE=Trucks,Derek Band - Soul Serenade
DYEAR=1900
DGENRE=blues
TTITLE0=Soul serenade/Rasta man chant
TTITLE1=Bock to bock
TTITLE2=Drown in my own tears(feat. Gregg Allman)
TTITLE3=Afro blue
TTITLE4=Elvin
TTITLE5=Oriental folk song
TTITLE6=Sierra Leone
EXTD=
EXTT0=
EXTT1=
EXTT2=
EXTT3=
EXTT4=
EXTT5=
EXTT6=
PLAYORDER=
